<svg width="497" height="412" viewBox="0 0 497 412" fill="none" xmlns="http://www.w3.org/2000/svg">
<path d="M16.7223 154.929C16.7223 166.567 19.0139 175.543 23.597 181.857C28.3041 188.048 35.4885 191.143 45.1502 191.143C49.3618 191.143 53.5114 190.648 57.5991 189.657C61.6868 188.667 66.5796 186.934 72.2775 184.457L77.6658 198.2C71.5963 200.924 65.8364 202.905 60.3861 204.143C54.9359 205.381 49.6715 206 44.5928 206C29.9763 206 18.89 201.419 11.334 192.257C3.778 183.095 0 170.653 0 154.929V127.072C0 111.348 3.778 98.905 11.334 89.7431C18.89 80.5812 29.9763 76.0002 44.5928 76.0002C49.6715 76.0002 54.9359 76.6193 60.3861 77.8574C65.9602 79.0955 71.5963 81.0765 77.2942 83.8003L72.0917 97.7288C62.0584 93.2717 53.0779 91.0431 45.1502 91.0431C35.4885 91.0431 28.3041 94.1383 23.597 100.329C19.0139 106.519 16.7223 115.434 16.7223 127.072V154.929Z" fill="black"/>
<path d="M120.27 154.743V204.143H104.105V77.8574H143.681C155.573 77.8574 164.739 81.0145 171.18 87.3288C177.745 93.5193 181.028 101.815 181.028 112.215V120.2C181.028 127.629 179.294 134.067 175.825 139.514C172.481 144.962 167.65 148.986 161.333 151.586C166.659 160.129 171.614 168.795 176.197 177.586C180.78 186.376 184.992 195.229 188.831 204.143H170.251C163.191 187.305 154.953 170.838 145.539 154.743H120.27ZM143.681 92.7145H120.27V139.886H143.681C149.999 139.886 155.015 138.153 158.731 134.686C162.447 131.095 164.305 126.267 164.305 120.2V112.215C164.305 106.024 162.447 101.257 158.731 97.9145C155.015 94.4479 149.999 92.7145 143.681 92.7145Z" fill="black"/>
<path d="M301.723 127.072V154.743C301.723 170.467 297.759 182.972 289.832 192.257C282.028 201.419 270.756 206 256.015 206C241.275 206 229.941 201.419 222.013 192.257C214.21 182.972 210.308 170.467 210.308 154.743V127.072C210.308 111.472 214.21 99.0907 222.013 89.9288C229.941 80.6431 241.275 76.0002 256.015 76.0002C270.756 76.0002 282.028 80.6431 289.832 89.9288C297.759 99.0907 301.723 111.472 301.723 127.072ZM285.001 127.072C285.001 115.557 282.523 106.705 277.569 100.515C272.738 94.2003 265.553 91.0431 256.015 91.0431C246.601 91.0431 239.417 94.2003 234.462 100.515C229.507 106.705 227.03 115.557 227.03 127.072V154.743C227.03 166.381 229.507 175.357 234.462 181.672C239.417 187.986 246.601 191.143 256.015 191.143C265.553 191.143 272.738 187.986 277.569 181.672C282.523 175.357 285.001 166.381 285.001 154.743V127.072Z" fill="black"/>
<path d="M361.823 191.514C369.627 191.514 375.635 189.843 379.846 186.5C384.058 183.034 386.163 178.019 386.163 171.457C386.163 166.01 384.677 161.429 381.704 157.715C378.855 154 374.148 151.153 367.583 149.172L352.533 144.715C343.119 141.867 336.182 137.595 331.723 131.9C327.264 126.081 325.034 118.962 325.034 110.543C325.034 104.105 326.273 98.286 328.75 93.086C331.351 87.886 335.439 83.7383 341.013 80.6431C346.711 77.5479 354.143 76.0002 363.31 76.0002C368.884 76.0002 374.644 76.6812 380.589 78.0431C386.535 79.2812 392.543 81.3241 398.612 84.1717L393.41 98.1003C387.464 95.5003 382.076 93.6431 377.245 92.5288C372.538 91.2907 368.017 90.6717 363.681 90.6717C356.621 90.6717 351.109 92.1574 347.145 95.1288C343.305 97.9764 341.385 102.743 341.385 109.429C341.385 114.257 342.685 118.343 345.287 121.686C347.888 124.905 352.533 127.567 359.222 129.672L374.272 134.129C393.1 139.7 402.514 151.71 402.514 170.157C402.514 180.805 399.294 189.472 392.852 196.157C386.411 202.719 376.068 206 361.823 206C356.001 206 349.808 205.319 343.243 203.957C336.802 202.472 330.113 200.181 323.176 197.086L328.193 183.343C334.758 186.314 340.642 188.419 345.844 189.657C351.17 190.895 356.497 191.514 361.823 191.514Z" fill="black"/>
<path d="M455.814 191.514C463.617 191.514 469.625 189.843 473.837 186.5C478.048 183.034 480.154 178.019 480.154 171.457C480.154 166.01 478.667 161.429 475.695 157.715C472.846 154 468.139 151.153 461.574 149.172L446.523 144.715C437.109 141.867 430.173 137.595 425.713 131.9C421.254 126.081 419.025 118.962 419.025 110.543C419.025 104.105 420.263 98.286 422.741 93.086C425.342 87.886 429.43 83.7383 435.004 80.6431C440.702 77.5479 448.134 76.0002 457.3 76.0002C462.874 76.0002 468.634 76.6812 474.58 78.0431C480.526 79.2812 486.533 81.3241 492.603 84.1717L487.4 98.1003C481.454 95.5003 476.066 93.6431 471.235 92.5288C466.528 91.2907 462.007 90.6717 457.672 90.6717C450.611 90.6717 445.099 92.1574 441.135 95.1288C437.295 97.9764 435.375 102.743 435.375 109.429C435.375 114.257 436.676 118.343 439.277 121.686C441.878 124.905 446.523 127.567 453.212 129.672L468.262 134.129C487.091 139.7 496.505 151.71 496.505 170.157C496.505 180.805 493.284 189.472 486.843 196.157C480.402 202.719 470.059 206 455.814 206C449.992 206 443.798 205.319 437.233 203.957C430.792 202.472 424.103 200.181 417.167 197.086L422.183 183.343C428.748 186.314 434.632 188.419 439.835 189.657C445.161 190.895 450.487 191.514 455.814 191.514Z" fill="black"/>
<path d="M243.071 16.7223C231.433 16.7223 222.457 19.0138 216.143 23.597C209.952 28.304 206.857 35.4884 206.857 45.1502C206.857 49.3617 207.352 53.5114 208.343 57.5991C209.333 61.6867 211.067 66.5795 213.543 72.2775L199.8 77.6658C197.076 71.5962 195.095 65.8363 193.857 60.3861C192.619 54.9359 192 49.6715 192 44.5928C192 29.9763 196.581 18.89 205.743 11.334C214.905 3.77797 227.348 -4.13739e-06 243.071 -3.45008e-06L270.929 -2.2324e-06C286.652 -1.54509e-06 299.095 3.77798 308.257 11.334C317.419 18.89 322 29.9763 322 44.5928C322 49.6715 321.381 54.9359 320.143 60.3861C318.905 65.9602 316.924 71.5963 314.2 77.2943L300.271 72.0917C304.729 62.0583 306.957 53.0778 306.957 45.1502C306.957 35.4884 303.862 28.304 297.671 23.597C291.481 19.0138 282.567 16.7223 270.929 16.7223L243.071 16.7223Z" fill="black"/>
<path d="M270.929 188.136L243.257 188.136C227.533 188.136 215.029 184.172 205.743 176.245C196.581 168.441 192 157.169 192 142.429C192 127.688 196.581 116.354 205.743 108.426C215.029 100.623 227.533 96.7208 243.257 96.7208L270.929 96.7208C286.529 96.7208 298.91 100.623 308.071 108.426C317.357 116.354 322 127.688 322 142.429C322 157.169 317.357 168.441 308.071 176.245C298.91 184.172 286.529 188.136 270.929 188.136ZM270.929 171.414C282.443 171.414 291.295 168.936 297.486 163.982C303.8 159.151 306.957 151.966 306.957 142.429C306.957 133.014 303.8 125.83 297.486 120.875C291.295 115.921 282.443 113.443 270.929 113.443L243.257 113.443C231.619 113.443 222.643 115.921 216.329 120.875C210.014 125.83 206.857 133.014 206.857 142.429C206.857 151.966 210.014 159.151 216.329 163.982C222.643 168.936 231.619 171.414 243.257 171.414L270.929 171.414Z" fill="black"/>
<path d="M193.857 222.41L320.143 222.41L320.143 261.614C320.143 276.107 315.748 287.255 306.957 295.059C298.29 302.863 286.281 306.764 270.929 306.764L243.257 306.764C227.781 306.764 215.648 302.863 206.857 295.059C198.19 287.255 193.857 276.107 193.857 261.614L193.857 222.41ZM304.914 261.243L304.914 238.575L208.9 238.575L208.9 261.243C208.9 280.442 220.352 290.042 243.257 290.042L270.929 290.042C293.586 290.042 304.914 280.442 304.914 261.243Z" fill="black"/>
<path d="M208.9 411.319L193.857 411.319L193.857 340.714L320.143 340.714L320.143 409.461L304.914 409.461L304.914 356.879L265.357 356.879L265.357 403.887L250.129 403.887L250.129 356.879L208.9 356.879L208.9 411.319Z" fill="black"/>
</svg>
